PLOT

At an exclusive, secluded North American ski resort up on Mount Rocky
Summit, brutal slashing, severing and beheading on a group of teenagers
are taking place and are believed to be the work of a mysterious skier
dressed in black.


Encoded By .......: BigPerm
Runtime ..........: 1h 26mn
File Size ........: 854 MB
Resolution .......: 704x396
IMDb URL .........: http://www.imdb.com/title/tt0282163/
Genre ............: Comedy | Horror
Language .........: English
Video
ID : 0
Format : MPEG-4 Visual
Format profile : Advanced Simple@L5
Format settings, BVOP : Yes
Format settings, QPel : No
Format settings, GMC : No warppoints
Format settings, Matrix : Default (H.263)
Codec ID : XVID
Codec ID/Hint : XviD
Duration : 1h 26mn
Bit rate : 1 191 Kbps
Width : 704 pixels
Height : 396 pixels
Display aspect ratio : 16:9
Frame rate : 23.976 fps
Color space : YUV
Chroma subsampling : 4:2:0
Bit depth : 8 bits
Scan type : Progressive
Compression mode : Lossy
Bits/(Pixel*Frame) : 0.178
Stream size : 733 MiB (86%)
Writing library : XviD 1.2.1 (UTC 2008-12-04)

Audio
ID : 1
Format : AC-3
Format/Info : Audio Coding 3
Format profile : Dolby Digital
Mode extension : CM (complete main)
Codec ID : 2000
Duration : 1h 26mn
Bit rate mode : Constant
Bit rate : 192 Kbps
Channel(s) : 2 channels
Channel positions : Front: L R
Sampling rate : 48.0 KHz
Bit depth : 16 bits
Compression mode : Lossy
Video delay : 42ms
Stream size : 118 MiB (14%)
Alignment : Split accross interleaves
Interleave, duration : 500 ms (11.99 video frames)
Interleave, preload duration : 500 ms
 
http://leetleech.org/images/12866102853102548033.png
 
http://leetleech.org/images/35685353064769212061.png
 
http://leetleech.org/images/13831599205895972996.png
 
http://leetleech.org/images/99454186260215145571.png
 
http://leetleech.org/images/01057635828300171846.png